<svg id="Column" xmlns="http://www.w3.org/2000/svg" width="82" height="239" viewBox="0 0 82 239">
  <g id="Union_4" data-name="Union 4" fill="#fff">
    <path d="M 77.71576690673828 238.5 L 4.284823417663574 238.5 L 4.284823417663574 205.4998474121094 L 15.76941204071045 205.4998474121094 L 16.26941108703613 205.4998474121094 L 16.26941108703613 204.9998474121094 L 16.26941108703613 198.4996795654297 L 20.81564712524414 198.4996795654297 L 21.31564712524414 198.4996795654297 L 21.31564712524414 197.9996795654297 L 21.31564712524414 48.99953079223633 L 21.31564712524414 48.49953079223633 L 20.81564712524414 48.49953079223633 L 15.63870620727539 48.49953079223633 L 15.63870620727539 40.70244216918945 L 15.63870620727539 40.04738235473633 L 15.0068531036377 40.22014617919922 C 14.32682323455811 40.40605926513672 13.62838268280029 40.50032424926758 12.93094158172607 40.50032424926758 C 9.654793739318848 40.50032424926758 6.557735443115234 38.45076370239258 4.210264682769775 34.7292366027832 C 1.817676424980164 30.93611717224121 0.5 25.88279342651367 0.5 20.50017738342285 C 0.5 15.11755847930908 1.817676424980164 10.06423568725586 4.210264682769775 6.271088123321533 C 6.557735443115234 2.549558877944946 9.654793739318848 0.5 12.93094158172607 0.5 C 13.0368824005127 0.5 13.13294124603271 0.5019117593765259 13.22458839416504 0.50582355260849 L 13.74600028991699 0.528176486492157 L 13.74600028991699 0.5 L 68.25399780273438 0.5 L 68.25399780273438 0.528176486492157 L 68.77541351318359 0.50582355260849 C 68.86705780029297 0.5019117593765259 68.96329498291016 0.5 69.06964874267578 0.5 C 72.34555816650391 0.5 75.44241333007812 2.549558877944946 77.789794921875 6.271088123321533 C 80.18235015869141 10.06426429748535 81.5 15.11758804321289 81.5 20.50017738342285 C 81.5 25.88273620605469 80.18235015869141 30.93605804443359 77.789794921875 34.7292366027832 C 75.44241333007812 38.4507942199707 72.34555816650391 40.50032424926758 69.06964874267578 40.50032424926758 C 67.96220397949219 40.50032424926758 66.86276245117188 40.26355743408203 65.80191040039062 39.7966194152832 L 65.10047149658203 39.48785400390625 L 65.10047149658203 40.25423431396484 L 65.10047149658203 48.49953079223633 L 60.55423355102539 48.49953079223633 L 60.05423355102539 48.49953079223633 L 60.05423355102539 48.99953079223633 L 60.05423355102539 197.9996795654297 L 60.05423355102539 198.4996795654297 L 60.55423355102539 198.4996795654297 L 66.36188507080078 198.4996795654297 L 66.36188507080078 204.9998474121094 L 66.36188507080078 205.4998474121094 L 66.86188507080078 205.4998474121094 L 77.71576690673828 205.4998474121094 L 77.71576690673828 238.5 Z" stroke="none"/>
    <path d="M 77.21575164794922 238 L 77.21575164794922 205.9998474121094 L 65.86187744140625 205.9998474121094 L 65.86187744140625 198.9996490478516 L 59.55421829223633 198.9996490478516 L 59.55421829223633 47.99953079223633 L 64.60047149658203 47.99953079223633 L 64.60047149658203 38.72143936157227 L 66.00334167480469 39.33897018432617 C 67.00034332275391 39.77781295776367 68.03196716308594 40.00034332275391 69.06962585449219 40.00034332275391 C 72.16768646240234 40.00034332275391 75.11440277099609 38.03362655639648 77.36690521240234 34.46250152587891 C 79.70974731445312 30.74815559387207 81 25.7895622253418 81 20.50015640258789 C 81 15.21078109741211 79.70974731445312 10.25218772888184 77.36690521240234 6.537843704223633 C 75.11440277099609 2.966718673706055 72.16768646240234 1 69.06962585449219 1 C 68.97077941894531 1 68.88156127929688 1.001749992370605 68.79681396484375 1.005406260490417 L 67.75399780273438 1.050062537193298 L 67.75399780273438 1 L 14.24600028991699 1 L 14.24600028991699 1.050062537193298 L 13.20318794250488 1.005406260490417 C 13.11843776702881 1.001749992370605 13.02940654754639 1 12.93093776702881 1 C 9.832625389099121 1 6.885749816894531 2.966718673706055 4.633156299591064 6.537843704223633 C 2.290281295776367 10.25215625762939 1 15.21071910858154 1 20.50015640258789 C 1 25.78959465026855 2.290281295776367 30.74818801879883 4.633156299591064 34.46250152587891 C 6.885749816894531 38.03362655639648 9.832625389099121 40.00034332275391 12.93093776702881 40.00034332275391 C 13.58381271362305 40.00034332275391 14.23787498474121 39.91203308105469 14.87496852874756 39.73784255981445 L 16.13868713378906 39.39231109619141 L 16.13868713378906 47.99953079223633 L 21.81562423706055 47.99953079223633 L 21.81562423706055 198.9996490478516 L 16.76940536499023 198.9996490478516 L 16.76940536499023 205.9998474121094 L 4.784812450408936 205.9998474121094 L 4.784812450408936 238 L 77.21575164794922 238 M 78.21575164794922 239 L 3.784812450408936 239 L 3.784812450408936 204.9998474121094 L 15.76940631866455 204.9998474121094 L 15.76940631866455 197.9996490478516 L 20.81562423706055 197.9996490478516 L 20.81562423706055 48.99953079223633 L 15.13868713378906 48.99953079223633 L 15.13868713378906 40.70243835449219 C 14.4211254119873 40.89862442016602 13.68368721008301 41.00034332275391 12.93093776702881 41.00034332275391 C 5.78934383392334 41.00034332275391 0 31.82215690612793 0 20.50015640258789 C 0 9.178187370300293 5.78934383392334 0 12.93093776702881 0 C 13.03653144836426 0 13.14096832275391 0.001812499947845936 13.24600028991699 0.006312500219792128 L 13.24600028991699 0 L 68.75399780273438 0 L 68.75399780273438 0.006312500219792128 C 68.85903167724609 0.001812499947845936 68.96403503417969 0 69.06962585449219 0 C 76.21065521240234 0 82 9.178187370300293 82 20.50015640258789 C 82 31.82215690612793 76.21065521240234 41.00034332275391 69.06962585449219 41.00034332275391 C 67.86781311035156 41.00034332275391 66.70462799072266 40.74024963378906 65.60047149658203 40.25421905517578 L 65.60047149658203 48.99953079223633 L 60.55421829223633 48.99953079223633 L 60.55421829223633 197.9996490478516 L 66.86187744140625 197.9996490478516 L 66.86187744140625 204.9998474121094 L 78.21575164794922 204.9998474121094 L 78.21575164794922 239 Z" stroke="none" fill="#707070"/>
  </g>
</svg>
