<svg id="Gear" xmlns="http://www.w3.org/2000/svg" width="45" height="45" viewBox="0 0 45 45">
  <g id="Group_1" data-name="Group 1" transform="translate(16.774)">
    <g id="Rectangle_2" data-name="Rectangle 2" transform="translate(0.226 24)" fill="#fff" stroke="#707070" stroke-width="1">
      <rect width="11" height="21" stroke="none"/>
      <rect x="0.5" y="0.5" width="10" height="20" fill="none"/>
    </g>
    <g id="Rectangle_3" data-name="Rectangle 3" transform="translate(0.226)" fill="#fff" stroke="#707070" stroke-width="1">
      <rect width="11" height="21" stroke="none"/>
      <rect x="0.5" y="0.5" width="10" height="20" fill="none"/>
    </g>
  </g>
  <g id="Group_2" data-name="Group 2" transform="translate(34.304 2.603) rotate(45)">
    <g id="Rectangle_2-2" data-name="Rectangle 2" transform="translate(0 24.284)" fill="#fff" stroke="#707070" stroke-width="1">
      <rect width="11.208" height="20.548" stroke="none"/>
      <rect x="0.5" y="0.5" width="10.208" height="19.548" fill="none"/>
    </g>
    <g id="Rectangle_3-2" data-name="Rectangle 3" fill="#fff" stroke="#707070" stroke-width="1">
      <rect width="11.208" height="20.548" stroke="none"/>
      <rect x="0.5" y="0.5" width="10.208" height="19.548" fill="none"/>
    </g>
  </g>
  <g id="Group_3" data-name="Group 3" transform="matrix(0.719, -0.695, 0.695, 0.719, 2.813, 10.184)">
    <g id="Rectangle_2-3" data-name="Rectangle 2" transform="translate(0 24.284)" fill="#fff" stroke="#707070" stroke-width="1">
      <rect width="11.208" height="20.548" stroke="none"/>
      <rect x="0.5" y="0.5" width="10.208" height="19.548" fill="none"/>
    </g>
    <g id="Rectangle_3-3" data-name="Rectangle 3" fill="#fff" stroke="#707070" stroke-width="1">
      <rect width="11.208" height="20.548" stroke="none"/>
      <rect x="0.5" y="0.5" width="10.208" height="19.548" fill="none"/>
    </g>
  </g>
  <g id="Group_4" data-name="Group 4" transform="translate(44.73 16.774) rotate(90)">
    <g id="Rectangle_2-4" data-name="Rectangle 2" transform="translate(0.226 23.73)" fill="#fff" stroke="#707070" stroke-width="1">
      <rect width="11" height="21" stroke="none"/>
      <rect x="0.5" y="0.5" width="10" height="20" fill="none"/>
    </g>
    <g id="Rectangle_3-4" data-name="Rectangle 3" transform="translate(0.226 -0.27)" fill="#fff" stroke="#707070" stroke-width="1">
      <rect width="11" height="21" stroke="none"/>
      <rect x="0.5" y="0.5" width="10" height="20" fill="none"/>
    </g>
  </g>
  <g id="Ellipse_2" data-name="Ellipse 2" transform="translate(4 4)" fill="#fff" stroke="#707070" stroke-width="1">
    <circle cx="18.5" cy="18.5" r="18.5" stroke="none"/>
    <circle cx="18.5" cy="18.5" r="18" fill="none"/>
  </g>
  <circle id="Ellipse_1" data-name="Ellipse 1" cx="9.5" cy="9.5" r="9.5" transform="translate(13 13)"/>
</svg>
