<svg id="share_black_24dp" xmlns="http://www.w3.org/2000/svg" width="193" height="193" viewBox="0 0 193 193">
  <path id="Path_8" data-name="Path 8" d="M0,0H193V193H0Z" fill="none"/>
  <path id="Path_9" data-name="Path 9" d="M123.625,115.227a23.417,23.417,0,0,0-15.762,6.192L50.526,88.046a26.325,26.325,0,0,0,.724-5.629,26.325,26.325,0,0,0-.724-5.629L107.22,43.736A24.071,24.071,0,1,0,99.5,26.125a26.324,26.324,0,0,0,.724,5.629L43.53,64.805a24.125,24.125,0,1,0,0,35.222l57.257,33.453a22.687,22.687,0,0,0-.643,5.227,23.482,23.482,0,1,0,23.482-23.482Z" transform="translate(21.125 14.083)"/>
</svg>
