<svg id="question_answer_black_24dp_1_" data-name="question_answer_black_24dp (1)" xmlns="http://www.w3.org/2000/svg" width="193.352" height="193.352" viewBox="0 0 193.352 193.352">
  <path id="Path_6" data-name="Path 6" d="M0,0H193.352V193.352H0Z" fill="none"/>
  <path id="Path_7" data-name="Path 7" d="M155.07,34.225H138.958v72.507H34.225v16.113a8.08,8.08,0,0,0,8.056,8.056H130.9l32.225,32.225V42.282A8.08,8.08,0,0,0,155.07,34.225ZM122.845,82.563V10.056A8.08,8.08,0,0,0,114.789,2H10.056A8.08,8.08,0,0,0,2,10.056V122.845L34.225,90.62h80.563A8.08,8.08,0,0,0,122.845,82.563Z" transform="translate(14.113 14.113)"/>
</svg>
